<svg width="70" height="71" viewBox="0 0 70 71" fill="none" xmlns="http://www.w3.org/2000/svg">
<path d="M68.7446 65.2839C69.0776 65.2839 69.3969 65.1516 69.6323 64.9161C69.8678 64.6807 70 64.3614 70 64.0284V62.7729H35.5754C35.1323 63.772 34.4354 64.6376 33.5541 65.2839H68.7446ZM37.3581 7.53275H49.9127V12.5546H37.3581V7.53275ZM52.4236 15.0655H64.9782V20.0873H52.4236V15.0655Z" fill="white"/>
<path d="M68.7444 0H33.5915C33.2585 0 32.9392 0.132271 32.7038 0.367716C32.4683 0.60316 32.3361 0.92249 32.3361 1.25546V21.8701C33.4537 22.3603 34.4047 23.1648 35.0734 24.1856C35.7421 25.2065 36.0996 26.3997 36.1024 27.6201V60.262H69.9998V1.25546C69.9998 0.92249 69.8676 0.60316 69.6321 0.367716C69.3967 0.132271 69.0773 0 68.7444 0ZM49.9125 33.8974H46.1461V37.6638C46.1461 38.6627 45.7493 39.6207 45.043 40.327C44.3366 41.0333 43.3786 41.4301 42.3797 41.4301C41.3808 41.4301 40.4228 41.0333 39.7165 40.327C39.0102 39.6207 38.6134 38.6627 38.6134 37.6638V30.131C38.6134 29.1321 39.0102 28.1741 39.7165 27.4678C40.4228 26.7614 41.3808 26.3646 42.3797 26.3646C43.3786 26.3646 44.3366 26.7614 45.043 27.4678C45.7493 28.1741 46.1461 29.1321 46.1461 30.131V31.3865H49.9125V33.8974ZM67.4889 21.3428C67.4889 21.6758 67.3566 21.9951 67.1212 22.2305C66.8857 22.466 66.5664 22.5983 66.2334 22.5983H36.1024C35.7695 22.5983 35.4501 22.466 35.2147 22.2305C34.9792 21.9951 34.847 21.6758 34.847 21.3428V6.27729C34.847 5.94433 34.9792 5.625 35.2147 5.38955C35.4501 5.15411 35.7695 5.02184 36.1024 5.02184H66.2334C66.5664 5.02184 66.8857 5.15411 67.1212 5.38955C67.3566 5.625 67.4889 5.94433 67.4889 6.27729V21.3428Z" fill="white"/>
<path d="M37.3579 15.0655H49.9124V20.0873H37.3579V15.0655ZM52.4234 7.53275H64.9779V12.5546H52.4234V7.53275ZM8.4823 28.8755H33.5915V27.6201C33.5885 26.6221 33.1907 25.6658 32.485 24.9601C31.7794 24.2545 30.8231 23.8567 29.8251 23.8537H12.2487C11.2507 23.8567 10.2944 24.2545 9.58874 24.9601C8.88305 25.6658 8.48528 26.6221 8.4823 27.6201V28.8755ZM42.3797 28.8755C42.0467 28.8755 41.7274 29.0078 41.4919 29.2433C41.2565 29.4787 41.1242 29.798 41.1242 30.131V37.6638C41.1242 37.9967 41.2565 38.3161 41.4919 38.5515C41.7274 38.7869 42.0467 38.9192 42.3797 38.9192C42.7127 38.9192 43.032 38.7869 43.2674 38.5515C43.5029 38.3161 43.6351 37.9967 43.6351 37.6638V33.8974H42.3797V31.3865H43.6351V30.131C43.6351 29.798 43.5029 29.4787 43.2674 29.2433C43.032 29.0078 42.7127 28.8755 42.3797 28.8755ZM13.1652 56.4956L12.4747 57.7009L13.1526 58.7304C14.2045 60.2967 14.7641 62.1417 14.7596 64.0284H29.8251C30.8231 64.0254 31.7794 63.6276 32.485 62.922C33.1907 62.2163 33.5885 61.26 33.5915 60.262V56.4956H13.1652ZM22.2923 61.5175H19.7814V59.0066H22.2923V61.5175Z" fill="white"/>
<path d="M9.90119 57.1234C9.78557 57.3259 9.72899 57.5567 9.73787 57.7897C9.74675 58.0227 9.82072 58.2485 9.9514 58.4416L11.0688 60.1239C11.8383 61.2807 12.2488 62.6391 12.2488 64.0284C12.2488 65.4178 11.8383 66.7761 11.0688 67.9329L9.9514 69.6152C9.81181 69.8184 9.73737 70.0592 9.73798 70.3057H0.949763V70.2304L0.0207239 55.3658C-0.161123 52.3569 0.859463 49.399 2.85806 47.1425L5.9716 43.6398V53.8969L5.5573 54.6125L7.72924 55.8679L11.4956 49.3396C11.6657 49.0537 11.9413 48.8461 12.2631 48.7615C12.5848 48.677 12.9269 48.7222 13.2156 48.8876C13.5006 49.0553 13.708 49.3287 13.7926 49.6484C13.8772 49.9681 13.8323 50.3083 13.6676 50.595L9.90119 57.1234Z" fill="white"/>
<path d="M8.4823 31.3865V49.5404L9.32346 48.0841C9.69858 47.4411 10.2554 46.9233 10.924 46.5959C11.5926 46.2685 12.343 46.1461 13.081 46.2441C13.819 46.342 14.5115 46.656 15.0715 47.1464C15.6316 47.6369 16.0341 48.282 16.2285 49.0006C16.4847 49.963 16.3492 50.9877 15.8518 51.8505L14.6215 53.9848H33.5915V31.3865H8.4823ZM14.7596 43.9411H12.2487V41.4302H14.7596V43.9411ZM19.7814 43.9411H17.2705V41.4302H19.7814V43.9411ZM24.8033 43.9411H22.2923V41.4302H24.8033V43.9411ZM29.8251 43.9411H27.3142V41.4302H29.8251V43.9411ZM22.964 13.1384C21.7869 11.9616 20.1905 11.3005 18.526 11.3005C16.8615 11.3005 15.2651 11.9616 14.0879 13.1384L15.8631 14.9136C16.5806 14.2289 17.5342 13.8468 18.526 13.8468C19.5177 13.8468 20.4714 14.2289 21.1888 14.9136L22.964 13.1384Z" fill="white"/>
<path d="M24.7408 11.3619L26.516 9.58668C24.3951 7.47133 21.5218 6.28342 18.5263 6.28342C15.5308 6.28342 12.6575 7.47133 10.5366 9.58668L12.3118 11.3619C13.9614 9.71636 16.1963 8.79224 18.5263 8.79224C20.8563 8.79224 23.0912 9.71636 24.7408 11.3619ZM16.7511 17.0567L18.5263 18.8319L20.3015 17.0567C19.8307 16.5859 19.1921 16.3215 18.5263 16.3215C17.8605 16.3215 17.2219 16.5859 16.7511 17.0567Z" fill="white"/>
</svg>
