<svg width="15" height="21" viewBox="0 0 15 21" fill="none" xmlns="http://www.w3.org/2000/svg">
<path d="M6.71875 20.1094C6.01562 19.1328 5.15625 17.8828 4.10156 16.3594C2.77344 14.4844 1.91406 13.2344 1.52344 12.5703C0.898438 11.6328 0.507812 10.8516 0.3125 10.2266C0.078125 9.60156 0 8.85938 0 8C0 6.67188 0.3125 5.42188 1.01562 4.25C1.67969 3.11719 2.57812 2.21875 3.75 1.51562C4.88281 0.851562 6.13281 0.5 7.5 0.5C8.82812 0.5 10.0781 0.851562 11.25 1.51562C12.3828 2.21875 13.2812 3.11719 13.9844 4.25C14.6484 5.42188 15 6.67188 15 8C15 8.85938 14.8828 9.60156 14.6875 10.2266C14.4531 10.8516 14.0625 11.6328 13.4766 12.5703C13.0469 13.2344 12.1875 14.4844 10.8984 16.3594L8.28125 20.1094C8.08594 20.3828 7.8125 20.5 7.5 20.5C7.14844 20.5 6.875 20.3828 6.71875 20.1094ZM7.5 11.125C8.35938 11.125 9.0625 10.8516 9.6875 10.2266C10.3125 9.60156 10.625 8.85938 10.625 8C10.625 7.14062 10.3125 6.4375 9.6875 5.8125C9.0625 5.1875 8.35938 4.875 7.5 4.875C6.64062 4.875 5.89844 5.1875 5.27344 5.8125C4.64844 6.4375 4.375 7.14062 4.375 8C4.375 8.85938 4.64844 9.60156 5.27344 10.2266C5.89844 10.8516 6.64062 11.125 7.5 11.125Z" fill="#FFB600"/>
</svg>
