<svg width="20" height="15" viewBox="0 0 20 15" fill="none" xmlns="http://www.w3.org/2000/svg">
<path d="M19.6094 4.96094C18.6719 5.70312 16.6406 7.1875 13.5938 9.375L13.2031 9.6875C12.5781 10.1562 12.1094 10.5078 11.7188 10.7031C11.0938 11.0938 10.5078 11.25 10 11.25C9.45312 11.25 8.90625 11.0938 8.28125 10.7422C7.89062 10.5469 7.42188 10.1953 6.79688 9.72656L6.40625 9.375C3.24219 7.10938 1.25 5.625 0.390625 4.96094C0.3125 4.92188 0.195312 4.92188 0.117188 4.96094C0.0390625 5 0 5.07812 0 5.15625V13.125C0 13.6719 0.15625 14.1016 0.546875 14.4531C0.898438 14.8438 1.32812 15 1.875 15H18.125C18.6328 15 19.0625 14.8438 19.4531 14.4531C19.8047 14.1016 20 13.6719 20 13.125V5.15625C20 5.07812 19.9219 5 19.8438 4.92188C19.7656 4.88281 19.6875 4.88281 19.6094 4.96094ZM10 10C9.64844 10 9.21875 9.84375 8.75 9.53125C8.4375 9.375 8.04688 9.10156 7.53906 8.67188L7.14844 8.39844C3.94531 6.05469 1.75781 4.45312 0.625 3.55469L0.351562 3.35938C0.117188 3.20312 0 2.92969 0 2.61719V1.875C0 1.36719 0.15625 0.9375 0.546875 0.546875C0.898438 0.195312 1.32812 0 1.875 0H18.125C18.6328 0 19.0625 0.195312 19.4531 0.546875C19.8047 0.9375 20 1.36719 20 1.875V2.61719C20 2.92969 19.8828 3.20312 19.6484 3.35938L19.4531 3.51562C18.3203 4.41406 16.1328 6.05469 12.8516 8.39844L12.4609 8.67188C11.9141 9.10156 11.5234 9.375 11.25 9.53125C10.7422 9.84375 10.3125 10 10 10Z" fill="#FFB600"/>
</svg>
