<svg width="70" height="70" viewBox="0 0 70 70" fill="none" xmlns="http://www.w3.org/2000/svg">
<path d="M4.75339 0C2.13858 0 0 2.1474 0 4.7622V65.2466C0.00233111 66.5066 0.503881 67.7142 1.39481 68.6052C2.28574 69.4961 3.49343 69.9977 4.75339 70H37.2378C38.4985 69.9988 39.7073 69.4978 40.5992 68.6067C41.4911 67.7157 41.9933 66.5073 41.9956 65.2466V59.5011H31.3953C30.0874 60.9684 28.4843 62.1428 26.691 62.9475C24.8976 63.7523 22.9546 64.1691 20.989 64.1707C17.277 64.1649 13.7187 62.6874 11.0944 60.0622C8.46999 57.437 6.99364 53.8783 6.98898 50.1663C6.99365 46.4532 8.47135 42.8936 11.0978 40.2688C13.7242 37.6441 17.2847 36.1686 20.9978 36.1663C25.1294 36.1663 28.8422 37.9742 31.4041 40.8359H41.9956V4.7622C41.9956 2.1474 39.857 0 37.2378 0H4.75339ZM13.9956 5.83811C14.6394 5.83811 15.1641 6.35401 15.1685 7.0022V11.6718C15.1685 11.8256 15.1381 11.9779 15.0791 12.12C15.0201 12.2621 14.9337 12.3911 14.8247 12.4996C14.7157 12.6082 14.5864 12.6942 14.4441 12.7526C14.3018 12.8111 14.1494 12.8409 13.9956 12.8403H9.32598C9.01761 12.838 8.72266 12.7138 8.50542 12.495C8.28819 12.2761 8.16629 11.9802 8.1663 11.6718V6.99779C8.1663 6.40252 8.62047 5.89543 9.26866 5.83811H13.9956ZM23.3304 5.83811C23.9742 5.83811 24.4901 6.35842 24.4945 7.0022V11.6718C24.4945 11.981 24.372 12.2775 24.1538 12.4965C23.9356 12.7155 23.6395 12.8391 23.3304 12.8403H18.6608C18.3524 12.838 18.0575 12.7138 17.8402 12.495C17.623 12.2761 17.5011 11.9802 17.5011 11.6718V6.99779C17.5011 6.40252 17.9509 5.90425 18.6035 5.83811H23.3304ZM32.6696 5.83811C33.309 5.83811 33.8293 6.35842 33.8293 7.0022V11.6718C33.8293 11.9802 33.7074 12.2761 33.4902 12.495C33.2729 12.7138 32.978 12.838 32.6696 12.8403H27.9956C27.6857 12.8403 27.3885 12.7172 27.1693 12.4981C26.9502 12.2789 26.8271 11.9817 26.8271 11.6718V6.99779C26.8271 6.40252 27.2813 5.89543 27.9383 5.83811H32.6696ZM10.4989 8.17512V10.5121H12.8359V8.17512H10.4989ZM19.8249 8.17512V10.5121H22.1619V8.17512H19.8249ZM29.1597 8.17512V10.5121H31.4967V8.17512H29.1597ZM57.1597 11.6718C52.5165 11.6718 48.0762 13.515 44.7912 16.7956C43.5962 17.8891 45.338 19.6397 46.4359 18.4491C47.8436 17.0383 49.5158 15.919 51.3567 15.1553C53.1976 14.3916 55.1711 13.9985 57.1641 13.9985C59.1571 13.9985 61.1306 14.3916 62.9715 15.1553C64.8124 15.919 66.4846 17.0383 67.8923 18.4491C68.9946 19.6397 70.732 17.8891 69.537 16.7956C66.2537 13.5142 61.8016 11.6711 57.1597 11.6718ZM9.32598 15.1641H13.9956C14.6438 15.1641 15.1685 15.6888 15.1685 16.337V21.0066C15.1685 21.6504 14.6394 22.1707 13.9956 22.1663H9.32598C9.01913 22.164 8.7255 22.0411 8.50851 21.8241C8.29153 21.6071 8.16861 21.3135 8.1663 21.0066V16.337C8.1663 15.6932 8.6822 15.1685 9.32598 15.1641ZM18.6608 15.1641H23.3348C23.9742 15.1641 24.4945 15.6932 24.4945 16.337V21.0066C24.4922 21.3142 24.3686 21.6085 24.1507 21.8256C23.9328 22.0427 23.638 22.1651 23.3304 22.1663H18.6608C18.3539 22.164 18.0603 22.0411 17.8433 21.8241C17.6263 21.6071 17.5034 21.3135 17.5011 21.0066V16.337C17.5011 15.6932 18.017 15.1685 18.6608 15.1641ZM28 15.1641H32.6696C33.3134 15.1641 33.8337 15.6932 33.8293 16.337V21.0066C33.827 21.3135 33.7041 21.6071 33.4871 21.8241C33.2701 22.0411 32.9765 22.164 32.6696 22.1663H27.9956C27.6872 22.1663 27.3913 22.0444 27.1724 21.8272C26.9535 21.6099 26.8294 21.315 26.8271 21.0066V16.337C26.8271 15.6888 27.3518 15.1641 28 15.1641ZM57.1597 16.337C53.7556 16.337 50.5014 17.6863 48.0939 20.0939C46.9474 21.1874 48.6362 22.8894 49.7386 21.7474C50.7131 20.7728 51.87 19.9997 53.1434 19.4722C54.4167 18.9447 55.7814 18.6733 57.1597 18.6733C58.5379 18.6733 59.9027 18.9447 61.176 19.4722C62.4493 19.9997 63.6063 20.7728 64.5808 21.7474C65.6832 22.8498 67.3411 21.1962 66.2387 20.0939C65.0456 18.9018 63.6293 17.9564 62.0707 17.3118C60.5122 16.6672 58.8419 16.336 57.1553 16.337H57.1597ZM10.4945 17.5011V19.8381H12.8315V17.5011H10.4945ZM19.8205 17.5011V19.8381H22.1575V17.5011H19.8205ZM29.1553 17.5011V19.8381H31.4923V17.5011H29.1553ZM57.1553 21.0066C56.0833 21.0062 55.0218 21.2171 54.0314 21.6271C53.0411 22.0372 52.1412 22.6385 51.3833 23.3965C50.1046 24.4901 51.9345 26.32 53.028 25.0457C54.1221 23.9516 55.6059 23.337 57.1531 23.337C58.7003 23.337 60.1841 23.9516 61.2781 25.0457C62.3805 26.0995 63.9899 24.4945 62.9361 23.3921C61.4012 21.8626 59.3221 21.0047 57.1553 21.0066ZM9.32158 24.5033H13.9912C14.6394 24.4989 15.1641 25.0236 15.1641 25.6718V30.3458C15.1641 30.9896 14.635 31.5099 13.9912 31.5099H9.32598C9.01837 31.5076 8.72408 31.3841 8.50697 31.1661C8.28986 30.9482 8.16745 30.6534 8.1663 30.3458V25.6718C8.1663 25.028 8.6778 24.5033 9.32158 24.5033ZM18.6564 24.5033H23.3304C23.9698 24.5033 24.4901 25.028 24.4901 25.6718V30.3458C24.4889 30.6542 24.3659 30.9496 24.1478 31.1677C23.9298 31.3857 23.6344 31.5088 23.326 31.5099H18.6608C18.3532 31.5076 18.0589 31.3841 17.8418 31.1661C17.6247 30.9482 17.5023 30.6534 17.5011 30.3458V25.6718C17.5011 25.028 18.017 24.5033 18.6608 24.5033H18.6564ZM27.9956 24.5033H32.6652C33.309 24.5033 33.8293 25.028 33.8249 25.6718V30.3458C33.8237 30.6534 33.7013 30.9482 33.4842 31.1661C33.2671 31.3841 32.9728 31.5076 32.6652 31.5099H27.9912C27.682 31.5099 27.3855 31.3874 27.1665 31.1692C26.9475 30.951 26.8238 30.655 26.8227 30.3458V25.6718C26.8227 25.0236 27.3474 24.4989 27.9956 24.5033ZM57.1553 25.6718C56.229 25.6753 55.3416 26.0448 54.6866 26.6998C54.0316 27.3548 53.6621 28.2422 53.6586 29.1685C53.6586 31.091 55.2328 32.6652 57.1553 32.6652C59.0778 32.6652 60.6608 31.091 60.6608 29.1685C60.6538 28.2417 60.282 27.355 59.6258 26.7005C58.9697 26.046 58.082 25.6764 57.1553 25.6718ZM10.4945 26.8359V29.1729H12.8315V26.8359H10.4945ZM19.8205 26.8359V29.1729H22.1575V26.8359H19.8205ZM29.1553 26.8359V29.1729H31.4923V26.8359H29.1553ZM20.9978 38.5077C14.538 38.5077 9.32598 43.7109 9.32598 50.1663C9.32126 52.3347 9.92161 54.4615 11.0595 56.3074C12.1975 58.1533 13.8278 59.6451 15.7672 60.615C17.7067 61.585 19.8782 61.9946 22.0377 61.7978C24.1972 61.601 26.259 60.8056 27.9912 59.5011H20.9978C18.5245 59.4918 16.1551 58.5055 14.4058 56.757C12.6565 55.0085 11.669 52.6396 11.6586 50.1663C11.6586 45.0381 15.874 40.8403 20.9978 40.8403H27.9912C25.9755 39.323 23.5208 38.5071 20.9978 38.5077ZM20.9978 43.1729C17.1395 43.1729 13.9956 46.308 13.9956 50.1663C13.9979 52.0227 14.7364 53.8024 16.0491 55.115C17.3617 56.4277 19.1414 57.1662 20.9978 57.1685H62.9978C64.8542 57.1662 66.6339 56.4277 67.9465 55.115C69.2592 53.8024 69.9977 52.0227 70 50.1663C70 46.308 66.8561 43.1729 62.9978 43.1729H20.9978ZM44.3238 50.1663H46.6608C48.2482 50.131 48.2482 52.5342 46.6608 52.4989H44.3238C42.7364 52.5342 42.7364 50.1354 44.3238 50.1663ZM51.3304 50.1663H62.9978C64.5896 50.131 64.5896 52.5342 62.9978 52.4989H51.3304C49.7386 52.5342 49.7386 50.1354 51.3304 50.1663Z" fill="white"/>
</svg>
